<svg width="183" height="62" viewBox="0 0 183 62" fill="none" xmlns="http://www.w3.org/2000/svg">
<path d="M3.01074 58.1455C1.90267 55.9896 1.34863 52.5329 1.34863 47.7754C1.34863 43.0059 1.93278 39.5492 3.10107 37.4053C4.28141 35.2493 6.12419 34.1714 8.62939 34.1714C11.1466 34.1714 12.9714 35.2253 14.1035 37.333C15.2357 39.4408 15.8018 42.9095 15.8018 47.7393C15.8018 52.557 15.2236 56.0317 14.0674 58.1636C12.9352 60.2954 11.0864 61.3613 8.521 61.3613C5.96761 61.3613 4.13086 60.2894 3.01074 58.1455ZM8.55713 38.3628C7.66585 38.3628 7.05762 39.0312 6.73242 40.3682C6.41927 41.7051 6.2627 44.1982 6.2627 47.8477C6.2627 51.485 6.41927 53.9541 6.73242 55.2549C7.05762 56.5436 7.66585 57.188 8.55713 57.188C9.15934 57.188 9.62305 56.911 9.94824 56.3569C10.2855 55.8029 10.5264 54.8875 10.6709 53.6108C10.8154 52.3221 10.8877 50.118 10.8877 46.9985C10.8877 43.867 10.7131 41.6449 10.3638 40.332C10.0265 39.0192 9.42432 38.3628 8.55713 38.3628ZM31.2666 38.9771H24.2026L23.8413 44.686C24.5037 44.5415 25.2806 44.4692 26.1719 44.4692C28.1592 44.4692 29.737 45.1678 30.9053 46.5649C32.0856 47.95 32.6758 49.841 32.6758 52.2378C32.6758 55.1043 31.9411 57.3446 30.4717 58.9585C29.0143 60.5604 26.9849 61.3613 24.3833 61.3613C22.0588 61.3613 20.1859 60.9217 18.7646 60.0425V55.4536C19.3789 55.8993 20.1678 56.2967 21.1313 56.646C22.0949 56.9832 22.9982 57.1519 23.8413 57.1519C26.4308 57.1519 27.7256 55.6463 27.7256 52.6353C27.7256 49.8289 26.467 48.4258 23.9497 48.4258C22.9621 48.4258 21.9022 48.6185 20.77 49.0039L19.1802 47.8296L19.9932 34.5869H31.2666V38.9771ZM42.4136 34.2075C44.5454 34.2075 46.2075 34.8338 47.3999 36.0864C48.6043 37.327 49.2065 39.0674 49.2065 41.3076C49.2065 43.2347 48.7669 45.1016 47.8877 46.9082C47.4541 47.8236 46.888 48.7871 46.1895 49.7988C45.5029 50.8105 43.8107 53.0387 41.1128 56.4834V56.6279H49.7666V61H35.6025V57.3325L40.2998 50.6841C41.5765 48.8654 42.4557 47.5225 42.9375 46.6553C43.889 44.9089 44.3647 43.2046 44.3647 41.5425C44.3647 40.5549 44.1419 39.8021 43.6963 39.2842C43.2627 38.7663 42.6966 38.5073 41.998 38.5073C41.3115 38.5073 40.6852 38.682 40.1191 39.0312C39.5651 39.3685 38.8966 39.9707 38.1138 40.8379L35.3677 37.9473C36.6564 36.502 37.8368 35.5203 38.9087 35.0024C39.9927 34.4725 41.161 34.2075 42.4136 34.2075ZM61.7808 53.1953H52.6934V48.9678H61.7808V53.1953ZM77.2275 38.9771H70.1636L69.8022 44.686C70.4647 44.5415 71.2415 44.4692 72.1328 44.4692C74.1201 44.4692 75.6979 45.1678 76.8662 46.5649C78.0465 47.95 78.6367 49.841 78.6367 52.2378C78.6367 55.1043 77.902 57.3446 76.4326 58.9585C74.9753 60.5604 72.9458 61.3613 70.3442 61.3613C68.0197 61.3613 66.1468 60.9217 64.7256 60.0425V55.4536C65.3398 55.8993 66.1287 56.2967 67.0923 56.646C68.0558 56.9832 68.9591 57.1519 69.8022 57.1519C72.3918 57.1519 73.6865 55.6463 73.6865 52.6353C73.6865 49.8289 72.4279 48.4258 69.9106 48.4258C68.923 48.4258 67.8631 48.6185 66.731 49.0039L65.1411 47.8296L65.9541 34.5869H77.2275V38.9771ZM88.3745 34.2075C90.5063 34.2075 92.1685 34.8338 93.3608 36.0864C94.5653 37.327 95.1675 39.0674 95.1675 41.3076C95.1675 43.2347 94.7279 45.1016 93.8486 46.9082C93.415 47.8236 92.849 48.7871 92.1504 49.7988C91.4639 50.8105 89.7716 53.0387 87.0737 56.4834V56.6279H95.7275V61H81.5635V57.3325L86.2607 50.6841C87.5374 48.8654 88.4167 47.5225 88.8984 46.6553C89.8499 44.9089 90.3257 43.2046 90.3257 41.5425C90.3257 40.5549 90.1029 39.8021 89.6572 39.2842C89.2236 38.7663 88.6576 38.5073 87.959 38.5073C87.2725 38.5073 86.6462 38.682 86.0801 39.0312C85.526 39.3685 84.8576 39.9707 84.0747 40.8379L81.3286 37.9473C82.6174 36.502 83.7977 35.5203 84.8696 35.0024C85.9536 34.4725 87.1219 34.2075 88.3745 34.2075ZM98.7988 38.9771V34.623H112.963V37.9473L105.682 61H100.605L108.013 38.9771H98.7988ZM116.251 40.7656C116.251 38.7904 116.883 37.2126 118.148 36.0322C119.425 34.8398 121.081 34.2437 123.116 34.2437C125.152 34.2437 126.778 34.8338 127.994 36.0142C129.223 37.1825 129.837 38.7663 129.837 40.7656C129.837 42.0303 129.542 43.1685 128.952 44.1802C128.361 45.1799 127.398 46.1253 126.061 47.0166C127.579 48.0885 128.669 49.1966 129.331 50.3408C129.993 51.485 130.325 52.7557 130.325 54.1528C130.325 56.3088 129.662 58.0492 128.337 59.374C127.013 60.6989 125.23 61.3613 122.99 61.3613C120.762 61.3613 119.003 60.7531 117.714 59.5366C116.426 58.3081 115.781 56.5617 115.781 54.2974C115.781 51.2863 117.1 48.9316 119.738 47.2334C118.485 46.2337 117.588 45.228 117.046 44.2163C116.516 43.1805 116.251 42.0303 116.251 40.7656ZM123.026 38.0557C121.641 38.0557 120.948 39.0192 120.948 40.9463C120.948 41.7412 121.087 42.4338 121.364 43.0239C121.653 43.6021 122.219 44.2284 123.062 44.9028C123.833 44.3006 124.369 43.6984 124.67 43.0962C124.983 42.4819 125.14 41.7653 125.14 40.9463C125.14 39.0192 124.435 38.0557 123.026 38.0557ZM122.845 49.311C122.038 49.9132 121.436 50.5877 121.039 51.3345C120.641 52.0812 120.442 52.9906 120.442 54.0625C120.442 55.1224 120.665 55.9655 121.111 56.5918C121.556 57.2061 122.201 57.5132 123.044 57.5132C123.887 57.5132 124.531 57.2061 124.977 56.5918C125.423 55.9775 125.646 55.1284 125.646 54.0444C125.646 53.2856 125.471 52.575 125.122 51.9126C124.784 51.2502 124.11 50.4673 123.098 49.564L122.845 49.311ZM133.378 40.7656C133.378 38.7904 134.01 37.2126 135.275 36.0322C136.552 34.8398 138.208 34.2437 140.243 34.2437C142.279 34.2437 143.905 34.8338 145.121 36.0142C146.35 37.1825 146.964 38.7663 146.964 40.7656C146.964 42.0303 146.669 43.1685 146.079 44.1802C145.488 45.1799 144.525 46.1253 143.188 47.0166C144.706 48.0885 145.796 49.1966 146.458 50.3408C147.12 51.485 147.452 52.7557 147.452 54.1528C147.452 56.3088 146.789 58.0492 145.464 59.374C144.139 60.6989 142.357 61.3613 140.117 61.3613C137.889 61.3613 136.13 60.7531 134.841 59.5366C133.553 58.3081 132.908 56.5617 132.908 54.2974C132.908 51.2863 134.227 48.9316 136.865 47.2334C135.612 46.2337 134.715 45.228 134.173 44.2163C133.643 43.1805 133.378 42.0303 133.378 40.7656ZM140.153 38.0557C138.768 38.0557 138.075 39.0192 138.075 40.9463C138.075 41.7412 138.214 42.4338 138.491 43.0239C138.78 43.6021 139.346 44.2284 140.189 44.9028C140.96 44.3006 141.496 43.6984 141.797 43.0962C142.11 42.4819 142.267 41.7653 142.267 40.9463C142.267 39.0192 141.562 38.0557 140.153 38.0557ZM139.972 49.311C139.165 49.9132 138.563 50.5877 138.166 51.3345C137.768 52.0812 137.569 52.9906 137.569 54.0625C137.569 55.1224 137.792 55.9655 138.238 56.5918C138.683 57.2061 139.328 57.5132 140.171 57.5132C141.014 57.5132 141.658 57.2061 142.104 56.5918C142.55 55.9775 142.772 55.1284 142.772 54.0444C142.772 53.2856 142.598 52.575 142.249 51.9126C141.911 51.2502 141.237 50.4673 140.225 49.564L139.972 49.311ZM158.906 43.9453C160.688 43.9453 162.067 44.668 163.043 46.1133C164.031 47.5586 164.524 49.6423 164.524 52.3643C164.524 55.0863 163.874 57.2723 162.573 58.9224C161.272 60.5483 159.472 61.3613 157.171 61.3613C154.883 61.3613 153.125 60.3857 151.896 58.4346C150.68 56.4834 150.071 53.5988 150.071 49.7808C150.071 44.3849 150.908 40.4465 152.583 37.9653C154.257 35.4842 156.81 34.2437 160.243 34.2437C161.351 34.2437 162.302 34.346 163.097 34.5508V38.6157C162.29 38.423 161.471 38.3267 160.64 38.3267C157.978 38.3267 156.184 39.5311 155.256 41.9399C154.787 43.1685 154.51 44.8486 154.425 46.9805H154.624C155.479 44.957 156.906 43.9453 158.906 43.9453ZM159.719 52.4907C159.719 50.9731 159.52 49.8289 159.123 49.0581C158.725 48.2873 158.153 47.9019 157.406 47.9019C156.66 47.9019 156.063 48.2692 155.618 49.0039C155.172 49.7386 154.949 50.666 154.949 51.7861C154.949 53.5326 155.154 54.8755 155.563 55.8149C155.973 56.7544 156.551 57.2241 157.298 57.2241C158.057 57.2241 158.647 56.8146 159.068 55.9956C159.502 55.1766 159.719 54.0083 159.719 52.4907ZM168.86 58.1455C167.752 55.9896 167.198 52.5329 167.198 47.7754C167.198 43.0059 167.782 39.5492 168.951 37.4053C170.131 35.2493 171.974 34.1714 174.479 34.1714C176.996 34.1714 178.821 35.2253 179.953 37.333C181.085 39.4408 181.651 42.9095 181.651 47.7393C181.651 52.557 181.073 56.0317 179.917 58.1636C178.785 60.2954 176.936 61.3613 174.371 61.3613C171.817 61.3613 169.98 60.2894 168.86 58.1455ZM174.407 38.3628C173.515 38.3628 172.907 39.0312 172.582 40.3682C172.269 41.7051 172.112 44.1982 172.112 47.8477C172.112 51.485 172.269 53.9541 172.582 55.2549C172.907 56.5436 173.515 57.188 174.407 57.188C175.009 57.188 175.473 56.911 175.798 56.3569C176.135 55.8029 176.376 54.8875 176.521 53.6108C176.665 52.3221 176.737 50.118 176.737 46.9985C176.737 43.867 176.563 41.6449 176.213 40.332C175.876 39.0192 175.274 38.3628 174.407 38.3628Z" fill="#071E4F"/>
<path d="M71.02 22.8327L76.4055 18.5591C77.698 17.5378 78.4519 15.9788 78.4519 14.3393V7.35107C86.5839 4.71705 95.3891 4.69017 103.548 7.35107V14.3662C103.548 16.0057 104.302 17.5646 105.595 18.586L110.953 22.8327C113.107 24.526 116.177 24.3647 118.116 22.4295L121.401 19.1504C123.555 17.0002 123.555 13.4254 121.266 11.4096C104.006 -3.80321 77.9942 -3.80321 60.7338 11.4096C58.445 13.4254 58.445 17.0002 60.5992 19.1504L63.8843 22.4295C65.7961 24.3647 68.8658 24.526 71.02 22.8327Z" fill="#071E4F"/>
</svg>
