<svg width="251" height="31" viewBox="0 0 251 31" fill="none" xmlns="http://www.w3.org/2000/svg">
<path d="M7.15079 19.4166L3.68435 21.4664C3.53121 21.5621 3.37112 21.6031 3.20406 21.5894C3.037 21.5758 2.89083 21.5211 2.76553 21.4255C2.64024 21.3298 2.54279 21.2101 2.47318 21.0663C2.40358 20.9226 2.38965 20.7621 2.43142 20.585L3.35023 16.7109L0.280553 14.1076C0.141338 13.9846 0.0544684 13.8444 0.0199432 13.687C-0.0145821 13.5295 -0.00428023 13.3759 0.0508487 13.2262C0.106535 13.0758 0.190063 12.9528 0.301435 12.8572C0.412807 12.7615 0.565943 12.7 0.760843 12.6727L4.81199 12.3242L6.37815 8.67555C6.44776 8.51157 6.55579 8.38858 6.70224 8.30658C6.8487 8.22459 6.99821 8.18359 7.15079 8.18359C7.30393 8.18359 7.45344 8.22459 7.59934 8.30658C7.74524 8.38858 7.85327 8.51157 7.92343 8.67555L9.4896 12.3242L13.5407 12.6727C13.7356 12.7 13.8888 12.7615 14.0001 12.8572C14.1115 12.9528 14.1951 13.0758 14.2507 13.2262C14.3064 13.3765 14.317 13.5304 14.2825 13.6878C14.248 13.8452 14.1608 13.9851 14.021 14.1076L10.9514 16.7109L11.8702 20.585C11.9119 20.7627 11.898 20.9234 11.8284 21.0671C11.7588 21.2109 11.6613 21.3303 11.5361 21.4255C11.4108 21.5211 11.2646 21.5758 11.0975 21.5894C10.9305 21.6031 10.7704 21.5621 10.6172 21.4664L7.15079 19.4166Z" fill="#476CB6"/>
<path d="M25.9225 19.4166L22.4561 21.4664C22.3029 21.5621 22.1428 21.6031 21.9758 21.5894C21.8087 21.5758 21.6626 21.5211 21.5373 21.4255C21.412 21.3298 21.3145 21.2101 21.2449 21.0663C21.1753 20.9226 21.1614 20.7621 21.2031 20.585L22.122 16.7109L19.0523 14.1076C18.9131 13.9846 18.8262 13.8444 18.7917 13.687C18.7571 13.5295 18.7674 13.3759 18.8226 13.2262C18.8783 13.0758 18.9618 12.9528 19.0732 12.8572C19.1845 12.7615 19.3377 12.7 19.5326 12.6727L23.5837 12.3242L25.1499 8.67555C25.2195 8.51157 25.3275 8.38858 25.474 8.30658C25.6204 8.22459 25.7699 8.18359 25.9225 8.18359C26.0757 8.18359 26.2252 8.22459 26.3711 8.30658C26.517 8.38858 26.625 8.51157 26.6952 8.67555L28.2613 12.3242L32.3125 12.6727C32.5074 12.7 32.6605 12.7615 32.7719 12.8572C32.8833 12.9528 32.9668 13.0758 33.0225 13.2262C33.0781 13.3765 33.0887 13.5304 33.0542 13.6878C33.0197 13.8452 32.9325 13.9851 32.7928 14.1076L29.7231 16.7109L30.6419 20.585C30.6837 20.7627 30.6697 20.9234 30.6001 21.0671C30.5305 21.2109 30.4331 21.3303 30.3078 21.4255C30.1825 21.5211 30.0363 21.5758 29.8693 21.5894C29.7022 21.6031 29.5421 21.5621 29.389 21.4664L25.9225 19.4166Z" fill="#476CB6"/>
<path d="M44.6944 19.4166L41.2279 21.4664C41.0748 21.5621 40.9147 21.6031 40.7476 21.5894C40.5806 21.5758 40.4344 21.5211 40.3091 21.4255C40.1838 21.3298 40.0864 21.2101 40.0168 21.0663C39.9472 20.9226 39.9332 20.7621 39.975 20.585L40.8938 16.7109L37.8241 14.1076C37.6849 13.9846 37.598 13.8444 37.5635 13.687C37.529 13.5295 37.5393 13.3759 37.5944 13.2262C37.6501 13.0758 37.7336 12.9528 37.845 12.8572C37.9564 12.7615 38.1095 12.7 38.3044 12.6727L42.3556 12.3242L43.9217 8.67555C43.9913 8.51157 44.0994 8.38858 44.2458 8.30658C44.3923 8.22459 44.5418 8.18359 44.6944 8.18359C44.8475 8.18359 44.997 8.22459 45.1429 8.30658C45.2888 8.38858 45.3968 8.51157 45.467 8.67555L47.0332 12.3242L51.0843 12.6727C51.2792 12.7 51.4324 12.7615 51.5437 12.8572C51.6551 12.9528 51.7386 13.0758 51.7943 13.2262C51.85 13.3765 51.8606 13.5304 51.8261 13.6878C51.7915 13.8452 51.7044 13.9851 51.5646 14.1076L48.4949 16.7109L49.4137 20.585C49.4555 20.7627 49.4416 20.9234 49.372 21.0671C49.3024 21.2109 49.2049 21.3303 49.0796 21.4255C48.9543 21.5211 48.8082 21.5758 48.6411 21.5894C48.474 21.6031 48.314 21.5621 48.1608 21.4664L44.6944 19.4166Z" fill="#476CB6"/>
<path d="M63.4661 19.4166L59.9997 21.4664C59.8465 21.5621 59.6864 21.6031 59.5194 21.5894C59.3523 21.5758 59.2061 21.5211 59.0808 21.4255C58.9555 21.3298 58.8581 21.2101 58.7885 21.0663C58.7189 20.9226 58.705 20.7621 58.7467 20.585L59.6655 16.7109L56.5959 14.1076C56.4566 13.9846 56.3698 13.8444 56.3353 13.687C56.3007 13.5295 56.311 13.3759 56.3662 13.2262C56.4218 13.0758 56.5054 12.9528 56.6167 12.8572C56.7281 12.7615 56.8813 12.7 57.0762 12.6727L61.1273 12.3242L62.6935 8.67555C62.7631 8.51157 62.8711 8.38858 63.0176 8.30658C63.164 8.22459 63.3135 8.18359 63.4661 8.18359C63.6192 8.18359 63.7688 8.22459 63.9146 8.30658C64.0605 8.38858 64.1686 8.51157 64.2387 8.67555L65.8049 12.3242L69.856 12.6727C70.0509 12.7 70.2041 12.7615 70.3155 12.8572C70.4268 12.9528 70.5104 13.0758 70.566 13.2262C70.6217 13.3765 70.6323 13.5304 70.5978 13.6878C70.5633 13.8452 70.4761 13.9851 70.3363 14.1076L67.2667 16.7109L68.1855 20.585C68.2272 20.7627 68.2133 20.9234 68.1437 21.0671C68.0741 21.2109 67.9767 21.3303 67.8514 21.4255C67.7261 21.5211 67.5799 21.5758 67.4128 21.5894C67.2458 21.6031 67.0857 21.5621 66.9325 21.4664L63.4661 19.4166Z" fill="#476CB6"/>
<path d="M82.2378 19.4166L78.7714 21.4664C78.6182 21.5621 78.4582 21.6031 78.2911 21.5894C78.124 21.5758 77.9779 21.5211 77.8526 21.4255C77.7273 21.3298 77.6298 21.2101 77.5602 21.0663C77.4906 20.9226 77.4767 20.7621 77.5185 20.585L78.4373 16.7109L75.3676 14.1076C75.2284 13.9846 75.1415 13.8444 75.107 13.687C75.0725 13.5295 75.0828 13.3759 75.1379 13.2262C75.1936 13.0758 75.2771 12.9528 75.3885 12.8572C75.4998 12.7615 75.653 12.7 75.8479 12.6727L79.899 12.3242L81.4652 8.67555C81.5348 8.51157 81.6428 8.38858 81.7893 8.30658C81.9357 8.22459 82.0852 8.18359 82.2378 8.18359C82.391 8.18359 82.5405 8.22459 82.6864 8.30658C82.8323 8.38858 82.9403 8.51157 83.0105 8.67555L84.5766 12.3242L88.6278 12.6727C88.8227 12.7 88.9758 12.7615 89.0872 12.8572C89.1986 12.9528 89.2821 13.0758 89.3378 13.2262C89.3935 13.3765 89.404 13.5304 89.3695 13.6878C89.335 13.8452 89.2478 13.9851 89.1081 14.1076L86.0384 16.7109L86.9572 20.585C86.999 20.7627 86.985 20.9234 86.9154 21.0671C86.8458 21.2109 86.7484 21.3303 86.6231 21.4255C86.4978 21.5211 86.3516 21.5758 86.1846 21.5894C86.0175 21.6031 85.8574 21.5621 85.7043 21.4664L82.2378 19.4166Z" fill="#476CB6"/>
<path d="M117.668 10.1365H113.221L112.994 13.7303C113.411 13.6393 113.9 13.5938 114.461 13.5938C115.712 13.5938 116.705 14.0336 117.441 14.9131C118.184 15.785 118.555 16.9754 118.555 18.4842C118.555 20.2887 118.093 21.6989 117.168 22.7149C116.25 23.7233 114.973 24.2275 113.335 24.2275C111.872 24.2275 110.693 23.9507 109.798 23.3972V20.5085C110.185 20.7891 110.681 21.0393 111.288 21.2591C111.894 21.4714 112.463 21.5776 112.994 21.5776C114.624 21.5776 115.439 20.6298 115.439 18.7344C115.439 16.9678 114.647 16.0845 113.062 16.0845C112.44 16.0845 111.773 16.2058 111.06 16.4484L110.06 15.7092L110.571 7.37289H117.668V10.1365Z" fill="#476CB6"/>
<path d="M134.264 9.92019C135.561 9.92019 136.443 10.1753 136.91 10.6856C137.378 11.1896 137.611 12.1333 137.611 13.5165V22H136.209V13.5165C136.209 13.0062 136.182 12.6036 136.127 12.3085C136.071 12.0134 135.961 11.7737 135.795 11.5892C135.635 11.3987 135.429 11.2726 135.177 11.2112C134.925 11.1497 134.587 11.1189 134.162 11.1189C133.744 11.1189 133.166 11.1558 132.429 11.2296V10.0308C133.142 9.95707 133.754 9.92019 134.264 9.92019ZM141.401 16.2367C140.731 17.1896 140.387 17.6783 140.368 17.7029H140.009V10.1046H141.401V16.2367ZM143.854 22V10.1784C143.878 10.1784 144.029 10.1599 144.306 10.1231C144.589 10.08 144.828 10.0493 145.025 10.0308C145.67 9.95707 146.23 9.92019 146.703 9.92019C148.013 9.92019 148.932 10.1815 149.46 10.704C149.989 11.2204 150.253 12.1579 150.253 13.5165V22H148.843V13.5165C148.843 13.0124 148.803 12.6036 148.723 12.29C148.649 11.9765 148.517 11.7337 148.326 11.5616C148.136 11.3894 147.905 11.2726 147.635 11.2112C147.37 11.1497 147.041 11.1189 146.648 11.1189C146.261 11.1189 145.797 11.1528 145.256 11.2204V22H143.854ZM155.556 10.0954C155.845 9.97859 156.146 9.92019 156.459 9.92019C156.773 9.92019 157.056 9.97244 157.308 10.0769C157.56 10.1753 157.766 10.3013 157.925 10.455C158.091 10.6087 158.233 10.8116 158.35 11.0636C158.473 11.3095 158.565 11.5493 158.626 11.7829C158.688 12.0103 158.737 12.287 158.774 12.6128C158.823 13.1169 158.848 13.6794 158.848 14.3003V22H155.353V20.8289H157.455V14.3003C157.455 13.2183 157.397 12.496 157.28 12.1333C157.132 11.6784 156.939 11.3864 156.699 11.2573C156.552 11.1774 156.355 11.1374 156.109 11.1374C155.869 11.1374 155.626 11.205 155.38 11.3403C155.135 11.4755 154.938 11.6415 154.79 11.8382C154.495 12.2316 154.295 12.5913 154.191 12.9171L154.126 13.12L153.324 22H151.922L152.633 14.1343C152.694 13.4273 152.725 12.957 152.725 12.7234C152.731 12.4837 152.722 12.2747 152.697 12.0964C152.672 11.912 152.642 11.7491 152.605 11.6077C152.574 11.4601 152.531 11.2942 152.476 11.1097C152.42 10.9253 152.377 10.787 152.347 10.6948C152.316 10.5964 152.273 10.4765 152.218 10.3351C152.162 10.1876 152.135 10.1108 152.135 10.1046H153.527C153.564 10.1968 153.635 10.4089 153.739 10.7409C153.844 11.0728 153.914 11.3218 153.951 11.4878H154.034C154.089 11.3526 154.2 11.1835 154.366 10.9806C154.538 10.7778 154.707 10.6087 154.873 10.4735C155.045 10.3321 155.273 10.206 155.556 10.0954ZM164.131 9.92019C165.441 9.92019 166.36 10.1815 166.889 10.704C167.417 11.2204 167.682 12.1579 167.682 13.5165V22H166.271V13.5165C166.271 13.0124 166.231 12.6036 166.151 12.29C166.077 11.9765 165.945 11.7337 165.754 11.5616C165.564 11.3894 165.333 11.2726 165.063 11.2112C164.798 11.1497 164.393 11.1189 163.846 11.1189C163.298 11.1189 162.444 11.2019 161.282 11.3679V10.1784C162.284 10.0063 163.234 9.92019 164.131 9.92019ZM162.684 22H161.282V14.4755H162.684V22ZM172.984 10.0954C173.273 9.97859 173.574 9.92019 173.887 9.92019C174.201 9.92019 174.484 9.97244 174.736 10.0769C174.988 10.1753 175.194 10.3013 175.354 10.455C175.52 10.6087 175.661 10.8116 175.778 11.0636C175.901 11.3095 175.993 11.5493 176.054 11.7829C176.116 12.0103 176.165 12.287 176.202 12.6128C176.251 13.1169 176.276 13.6794 176.276 14.3003V22H172.781V20.8289H174.883V14.3003C174.883 13.2183 174.825 12.496 174.708 12.1333C174.561 11.6784 174.367 11.3864 174.127 11.2573C173.98 11.1774 173.783 11.1374 173.537 11.1374C173.297 11.1374 173.054 11.205 172.809 11.3403C172.563 11.4755 172.366 11.6415 172.218 11.8382C171.923 12.2316 171.724 12.5913 171.619 12.9171L171.554 13.12L170.752 22H169.351L170.061 14.1343C170.122 13.4273 170.153 12.957 170.153 12.7234C170.159 12.4837 170.15 12.2747 170.125 12.0964C170.101 11.912 170.07 11.7491 170.033 11.6077C170.002 11.4601 169.959 11.2942 169.904 11.1097C169.849 10.9253 169.806 10.787 169.775 10.6948C169.744 10.5964 169.701 10.4765 169.646 10.3351C169.59 10.1876 169.563 10.1108 169.563 10.1046H170.955C170.992 10.1968 171.063 10.4089 171.167 10.7409C171.272 11.0728 171.342 11.3218 171.379 11.4878H171.462C171.518 11.3526 171.628 11.1835 171.794 10.9806C171.966 10.7778 172.135 10.6087 172.301 10.4735C172.474 10.3321 172.701 10.206 172.984 10.0954ZM184.095 13.9038V26.5368H182.694V13.9038C182.694 13.3013 182.654 12.6835 182.574 12.0503C182.494 11.4171 182.414 10.9345 182.334 10.6026L182.214 10.1046H183.625C183.748 10.5288 183.856 11.1159 183.948 11.8659C184.046 12.6097 184.095 13.289 184.095 13.9038ZM187.941 22H186.548V10.1046H187.941V22ZM196.074 22H189.748V20.8289H192.883L194.497 20.8658L192.819 17.5738L189.72 10.1046H191.186L193.695 16.4212C194.156 15.9171 194.472 14.7367 194.644 12.8802L194.912 10.1138H196.313L196.12 12.1056C195.985 13.5318 195.794 14.6538 195.548 15.4714C195.308 16.289 194.893 16.9867 194.303 17.5646L196.074 21.2623V22ZM199.015 9.92019C200.312 9.92019 201.195 10.1753 201.662 10.6856C202.129 11.1896 202.363 12.1333 202.363 13.5165V22H200.961V13.5165C200.961 13.0062 200.933 12.6036 200.878 12.3085C200.823 12.0134 200.712 11.7737 200.546 11.5892C200.386 11.3987 200.18 11.2726 199.928 11.2112C199.676 11.1497 199.338 11.1189 198.914 11.1189C198.496 11.1189 197.918 11.1558 197.18 11.2296V10.0308C197.893 9.95707 198.505 9.92019 199.015 9.92019ZM208.135 10.206C208.154 10.206 208.292 10.1876 208.55 10.1507C208.814 10.1138 209.073 10.08 209.325 10.0493C210.032 9.96322 210.732 9.92019 211.427 9.92019C212.122 9.92019 212.678 9.98781 213.096 10.1231C213.514 10.2583 213.843 10.4335 214.083 10.6487C214.329 10.8577 214.522 11.1282 214.664 11.4601C214.805 11.786 214.897 12.1087 214.94 12.4284C214.983 12.748 215.005 13.1169 215.005 13.5349V22H213.613V13.5349C213.613 12.2931 213.311 11.5493 212.709 11.3034C212.42 11.1804 212.076 11.1189 211.676 11.1189C211.276 11.1189 210.828 11.1343 210.33 11.1651V18.7449C210.33 19.9928 210.207 20.8566 209.961 21.3361C209.721 21.8156 209.245 22.0553 208.532 22.0553C208.304 22.0553 208.018 22.0154 207.674 21.9355V20.7182C207.969 20.7736 208.132 20.8012 208.163 20.8012C208.439 20.8012 208.636 20.706 208.753 20.5154C208.87 20.3187 208.928 20.0267 208.928 19.6394V11.2942C208.774 11.3126 208.51 11.3464 208.135 11.3956V10.206ZM218.85 22H217.458V10.1046H218.85V22ZM223.276 15.4898L224.134 20.4232C224.706 20.0482 225.133 19.458 225.416 18.6527C225.705 17.8474 225.914 16.7931 226.043 15.4898C226.104 14.8935 226.19 13.999 226.301 12.8064C226.412 11.6077 226.495 10.7101 226.55 10.1138H227.952L227.444 15.3607C227.309 16.75 227.162 17.7552 227.002 18.3761C226.621 19.8453 225.911 20.875 224.872 21.4652C224.374 21.7418 223.796 21.9355 223.138 22.0461C222.714 22.1199 221.899 22.2643 220.694 22.4795V21.2992C221.905 21.1025 222.695 20.9611 223.064 20.875L220.713 10.1046H222.114L223.276 15.4898ZM230.884 16.2367C230.214 17.1896 229.87 17.6783 229.851 17.7029H229.491V10.1046H230.884V16.2367ZM232.959 10.0308C233.616 9.95707 234.262 9.92019 234.895 9.92019C235.534 9.92019 236.051 9.97552 236.444 10.0862C236.838 10.1968 237.154 10.3474 237.394 10.538C237.64 10.7286 237.834 10.9806 237.975 11.2942C238.116 11.6077 238.212 11.9396 238.261 12.29C238.31 12.6343 238.335 13.0493 238.335 13.5349V20.8289H239.275V22H232.968V20.8289H236.933V13.5349C236.933 12.2931 236.65 11.5493 236.085 11.3034C235.808 11.1804 235.464 11.1189 235.052 11.1189C234.283 11.1189 233.669 11.1497 233.208 11.2112L232.959 11.2388V10.0308ZM242.899 22H241.147L240.16 10.1046H241.507L242.051 16.6517C242.678 16.4242 243.139 16.0492 243.434 15.5267C243.735 14.998 243.932 14.205 244.024 13.1476L244.292 10.1046H245.61L245.343 13.1384C245.244 14.2142 245.06 15.0656 244.789 15.6927C244.328 16.7869 243.449 17.4908 242.152 17.8043L242.401 20.8105H242.899C243.784 20.8105 244.568 20.5738 245.251 20.1004C245.933 19.6209 246.468 18.9724 246.855 18.1547C247.248 17.331 247.494 16.3781 247.593 15.2962L248.072 10.1046H249.4L248.921 15.2962C248.736 17.374 248.128 19.0123 247.095 20.2111C246.781 20.5799 246.431 20.8935 246.044 21.1516C245.656 21.4037 245.192 21.6096 244.651 21.7695C244.116 21.9232 243.532 22 242.899 22Z" fill="#071E4F"/>
</svg>
