<svg width="119" height="18" viewBox="0 0 119 18" fill="none" xmlns="http://www.w3.org/2000/svg">
<path d="M7.41605 13.233L3.94961 15.2829C3.79647 15.3785 3.63638 15.4195 3.46932 15.4058C3.30226 15.3922 3.15609 15.3375 3.03079 15.2419C2.9055 15.1462 2.80805 15.0265 2.73844 14.8827C2.66883 14.739 2.65491 14.5785 2.69668 14.4014L3.61549 10.5273L0.545812 7.92399C0.406597 7.801 0.319727 7.66079 0.285202 7.50336C0.250677 7.34594 0.260979 7.19234 0.316108 7.04256C0.371793 6.89224 0.455322 6.76925 0.566694 6.6736C0.678065 6.57794 0.831201 6.51644 1.0261 6.48911L5.07725 6.14064L6.64341 2.49196C6.71302 2.32797 6.82105 2.20498 6.9675 2.12299C7.11396 2.041 7.26347 2 7.41605 2C7.56919 2 7.7187 2.041 7.8646 2.12299C8.0105 2.20498 8.11853 2.32797 8.18869 2.49196L9.75486 6.14064L13.806 6.48911C14.0009 6.51644 14.154 6.57794 14.2654 6.6736C14.3768 6.76925 14.4603 6.89224 14.516 7.04256C14.5717 7.19289 14.5823 7.34676 14.5477 7.50418C14.5132 7.66161 14.4261 7.80155 14.2863 7.92399L11.2166 10.5273L12.1354 14.4014C12.1772 14.5791 12.1633 14.7398 12.0937 14.8835C12.0241 15.0273 11.9266 15.1467 11.8013 15.2419C11.676 15.3375 11.5298 15.3922 11.3628 15.4058C11.1957 15.4195 11.0356 15.3785 10.8825 15.2829L7.41605 13.233Z" fill="#476CB6"/>
<path d="M26.1878 13.233L22.7213 15.2829C22.5682 15.3785 22.4081 15.4195 22.241 15.4058C22.074 15.3922 21.9278 15.3375 21.8025 15.2419C21.6772 15.1462 21.5798 15.0265 21.5102 14.8827C21.4406 14.739 21.4266 14.5785 21.4684 14.4014L22.3872 10.5273L19.3175 7.92399C19.1783 7.801 19.0915 7.66079 19.0569 7.50336C19.0224 7.34594 19.0327 7.19234 19.0878 7.04256C19.1435 6.89224 19.2271 6.76925 19.3384 6.6736C19.4498 6.57794 19.6029 6.51644 19.7978 6.48911L23.849 6.14064L25.4151 2.49196C25.4847 2.32797 25.5928 2.20498 25.7392 2.12299C25.8857 2.041 26.0352 2 26.1878 2C26.3409 2 26.4904 2.041 26.6363 2.12299C26.7822 2.20498 26.8903 2.32797 26.9604 2.49196L28.5266 6.14064L32.5777 6.48911C32.7726 6.51644 32.9258 6.57794 33.0371 6.6736C33.1485 6.76925 33.232 6.89224 33.2877 7.04256C33.3434 7.19289 33.354 7.34676 33.3195 7.50418C33.2849 7.66161 33.1978 7.80155 33.058 7.92399L29.9883 10.5273L30.9072 14.4014C30.9489 14.5791 30.935 14.7398 30.8654 14.8835C30.7958 15.0273 30.6983 15.1467 30.573 15.2419C30.4477 15.3375 30.3016 15.3922 30.1345 15.4058C29.9675 15.4195 29.8074 15.3785 29.6542 15.2829L26.1878 13.233Z" fill="#476CB6"/>
<path d="M44.9596 13.233L41.4932 15.2829C41.3401 15.3785 41.18 15.4195 41.0129 15.4058C40.8458 15.3922 40.6997 15.3375 40.5744 15.2419C40.4491 15.1462 40.3516 15.0265 40.282 14.8827C40.2124 14.739 40.1985 14.5785 40.2403 14.4014L41.1591 10.5273L38.0894 7.92399C37.9502 7.801 37.8633 7.66079 37.8288 7.50336C37.7943 7.34594 37.8046 7.19234 37.8597 7.04256C37.9154 6.89224 37.9989 6.76925 38.1103 6.6736C38.2216 6.57794 38.3748 6.51644 38.5697 6.48911L42.6208 6.14064L44.187 2.49196C44.2566 2.32797 44.3646 2.20498 44.5111 2.12299C44.6575 2.041 44.8071 2 44.9596 2C45.1128 2 45.2623 2.041 45.4082 2.12299C45.5541 2.20498 45.6621 2.32797 45.7323 2.49196L47.2984 6.14064L51.3496 6.48911C51.5445 6.51644 51.6976 6.57794 51.809 6.6736C51.9204 6.76925 52.0039 6.89224 52.0596 7.04256C52.1153 7.19289 52.1258 7.34676 52.0913 7.50418C52.0568 7.66161 51.9696 7.80155 51.8299 7.92399L48.7602 10.5273L49.679 14.4014C49.7208 14.5791 49.7068 14.7398 49.6372 14.8835C49.5676 15.0273 49.4702 15.1467 49.3449 15.2419C49.2196 15.3375 49.0734 15.3922 48.9064 15.4058C48.7393 15.4195 48.5792 15.3785 48.4261 15.2829L44.9596 13.233Z" fill="#476CB6"/>
<path d="M63.7314 13.233L60.2649 15.2829C60.1118 15.3785 59.9517 15.4195 59.7846 15.4058C59.6176 15.3922 59.4714 15.3375 59.3461 15.2419C59.2208 15.1462 59.1234 15.0265 59.0537 14.8827C58.9841 14.739 58.9702 14.5785 59.012 14.4014L59.9308 10.5273L56.8611 7.92399C56.7219 7.801 56.635 7.66079 56.6005 7.50336C56.566 7.34594 56.5763 7.19234 56.6314 7.04256C56.6871 6.89224 56.7706 6.76925 56.882 6.6736C56.9934 6.57794 57.1465 6.51644 57.3414 6.48911L61.3926 6.14064L62.9587 2.49196C63.0283 2.32797 63.1364 2.20498 63.2828 2.12299C63.4293 2.041 63.5788 2 63.7314 2C63.8845 2 64.034 2.041 64.1799 2.12299C64.3258 2.20498 64.4338 2.32797 64.504 2.49196L66.0702 6.14064L70.1213 6.48911C70.3162 6.51644 70.4693 6.57794 70.5807 6.6736C70.6921 6.76925 70.7756 6.89224 70.8313 7.04256C70.887 7.19289 70.8976 7.34676 70.863 7.50418C70.8285 7.66161 70.7414 7.80155 70.6016 7.92399L67.5319 10.5273L68.4507 14.4014C68.4925 14.5791 68.4786 14.7398 68.409 14.8835C68.3394 15.0273 68.2419 15.1467 68.1166 15.2419C67.9913 15.3375 67.8451 15.3922 67.6781 15.4058C67.511 15.4195 67.3509 15.3785 67.1978 15.2829L63.7314 13.233Z" fill="#476CB6"/>
<path d="M82.5031 13.233L79.0366 15.2829C78.8835 15.3785 78.7234 15.4195 78.5564 15.4058C78.3893 15.3922 78.2431 15.3375 78.1178 15.2419C77.9925 15.1462 77.8951 15.0265 77.8255 14.8827C77.7559 14.739 77.7419 14.5785 77.7837 14.4014L78.7025 10.5273L75.6328 7.92399C75.4936 7.801 75.4068 7.66079 75.3722 7.50336C75.3377 7.34594 75.348 7.19234 75.4031 7.04256C75.4588 6.89224 75.5424 6.76925 75.6537 6.6736C75.7651 6.57794 75.9182 6.51644 76.1131 6.48911L80.1643 6.14064L81.7304 2.49196C81.8001 2.32797 81.9081 2.20498 82.0545 2.12299C82.201 2.041 82.3505 2 82.5031 2C82.6562 2 82.8057 2.041 82.9516 2.12299C83.0975 2.20498 83.2056 2.32797 83.2757 2.49196L84.8419 6.14064L88.893 6.48911C89.0879 6.51644 89.2411 6.57794 89.3524 6.6736C89.4638 6.76925 89.5473 6.89224 89.603 7.04256C89.6587 7.19289 89.6693 7.34676 89.6348 7.50418C89.6002 7.66161 89.5131 7.80155 89.3733 7.92399L86.3036 10.5273L87.2225 14.4014C87.2642 14.5791 87.2503 14.7398 87.1807 14.8835C87.1111 15.0273 87.0136 15.1467 86.8883 15.2419C86.7631 15.3375 86.6169 15.3922 86.4498 15.4058C86.2828 15.4195 86.1227 15.3785 85.9695 15.2829L82.5031 13.233Z" fill="#476CB6"/>
<path d="M117.236 3.3406H112.789L112.562 6.93442C112.979 6.84344 113.468 6.79794 114.029 6.79794C115.28 6.79794 116.273 7.23769 117.009 8.11719C117.752 8.98911 118.123 10.1795 118.123 11.6883C118.123 13.4928 117.661 14.903 116.736 15.919C115.818 16.9274 114.541 17.4316 112.903 17.4316C111.44 17.4316 110.261 17.1548 109.366 16.6013V13.7126C109.753 13.9932 110.25 14.2434 110.856 14.4632C111.463 14.6755 112.031 14.7817 112.562 14.7817C114.192 14.7817 115.007 13.8339 115.007 11.9385C115.007 10.1719 114.215 9.2886 112.63 9.2886C112.009 9.2886 111.341 9.40991 110.629 9.65253L109.628 8.91329L110.14 0.576996H117.236V3.3406Z" fill="#476CB6"/>
</svg>
