<svg width="45" height="18" viewBox="0 0 45 18" fill="none" xmlns="http://www.w3.org/2000/svg">
<path d="M8.45157 17.1245L12.2382 13.9193C13.147 13.1533 13.6771 11.9841 13.6771 10.7545V5.5133C19.395 3.53779 25.5861 3.51763 31.3229 5.5133V10.7746C31.3229 12.0043 31.853 13.1735 32.7618 13.9395L36.5295 17.1245C38.0442 18.3945 40.2025 18.2735 41.5657 16.8221L43.8756 14.3628C45.3902 12.7501 45.3902 10.0691 43.7809 8.55721C31.6447 -2.8524 13.3553 -2.8524 1.21909 8.55721C-0.390228 10.0691 -0.390228 12.7501 1.12443 14.3628L3.43428 16.8221C4.77853 18.2735 6.93692 18.3945 8.45157 17.1245Z" fill="#071E4F"/>
</svg>
