<svg width="127" height="19" viewBox="0 0 127 19" fill="none" xmlns="http://www.w3.org/2000/svg">
<path d="M10.1328 15.9174L5.2208 18.8221C5.00381 18.9576 4.77695 19.0157 4.54022 18.9964C4.3035 18.977 4.09636 18.8995 3.91882 18.764C3.74128 18.6285 3.60319 18.4588 3.50455 18.2551C3.40592 18.0514 3.38619 17.8241 3.44537 17.5731L4.74735 12.0833L0.39755 8.39442C0.200279 8.22014 0.0771829 8.02146 0.0282599 7.79839C-0.0206631 7.57531 -0.00606518 7.35766 0.0720538 7.14542C0.150962 6.93242 0.269324 6.75814 0.42714 6.62259C0.584956 6.48704 0.801953 6.3999 1.07813 6.36117L6.81869 5.86738L9.03798 0.697115C9.13661 0.464743 9.2897 0.290464 9.49722 0.174279C9.70475 0.058093 9.91662 0 10.1328 0C10.3498 0 10.5617 0.058093 10.7684 0.174279C10.9752 0.290464 11.1283 0.464743 11.2277 0.697115L13.447 5.86738L19.1875 6.36117C19.4637 6.3999 19.6807 6.48704 19.8385 6.62259C19.9963 6.75814 20.1147 6.93242 20.1936 7.14542C20.2725 7.35843 20.2875 7.57647 20.2386 7.79955C20.1897 8.02263 20.0662 8.22092 19.8681 8.39442L15.5183 12.0833L16.8203 17.5731C16.8795 17.8248 16.8597 18.0526 16.7611 18.2563C16.6625 18.46 16.5244 18.6292 16.3468 18.764C16.1693 18.8995 15.9622 18.977 15.7254 18.9964C15.4887 19.0157 15.2619 18.9576 15.0449 18.8221L10.1328 15.9174Z" fill="#476CB6"/>
<path d="M36.7327 15.9174L31.8207 18.8221C31.6037 18.9576 31.3768 19.0157 31.1401 18.9964C30.9034 18.977 30.6962 18.8995 30.5187 18.764C30.3411 18.6285 30.203 18.4588 30.1044 18.2551C30.0058 18.0514 29.986 17.8241 30.0452 17.5731L31.3472 12.0833L26.9974 8.39442C26.8001 8.22014 26.677 8.02146 26.6281 7.79839C26.5792 7.57531 26.5938 7.35766 26.6719 7.14542C26.7508 6.93242 26.8692 6.75814 27.027 6.62259C27.1848 6.48704 27.4018 6.3999 27.678 6.36117L33.4185 5.86738L35.6378 0.697115C35.7365 0.464743 35.8896 0.290464 36.0971 0.174279C36.3046 0.058093 36.5165 0 36.7327 0C36.9497 0 37.1615 0.058093 37.3683 0.174279C37.575 0.290464 37.7281 0.464743 37.8275 0.697115L40.0468 5.86738L45.7874 6.36117C46.0636 6.3999 46.2806 6.48704 46.4384 6.62259C46.5962 6.75814 46.7145 6.93242 46.7935 7.14542C46.8724 7.35843 46.8874 7.57647 46.8384 7.79955C46.7895 8.02263 46.666 8.22092 46.468 8.39442L42.1182 12.0833L43.4201 17.5731C43.4793 17.8248 43.4596 18.0526 43.361 18.2563C43.2623 18.46 43.1242 18.6292 42.9467 18.764C42.7691 18.8995 42.562 18.977 42.3253 18.9964C42.0886 19.0157 41.8617 18.9576 41.6447 18.8221L36.7327 15.9174Z" fill="#476CB6"/>
<path d="M63.3328 15.9174L58.4208 18.8221C58.2038 18.9576 57.9769 19.0157 57.7402 18.9964C57.5034 18.977 57.2963 18.8995 57.1188 18.764C56.9412 18.6285 56.8031 18.4588 56.7045 18.2551C56.6059 18.0514 56.5861 17.8241 56.6453 17.5731L57.9473 12.0833L53.5975 8.39442C53.4002 8.22014 53.2771 8.02146 53.2282 7.79839C53.1793 7.57531 53.1939 7.35766 53.272 7.14542C53.3509 6.93242 53.4693 6.75814 53.6271 6.62259C53.7849 6.48704 54.0019 6.3999 54.2781 6.36117L60.0186 5.86738L62.2379 0.697115C62.3366 0.464743 62.4896 0.290464 62.6972 0.174279C62.9047 0.058093 63.1166 0 63.3328 0C63.5498 0 63.7616 0.058093 63.9684 0.174279C64.1751 0.290464 64.3282 0.464743 64.4276 0.697115L66.6469 5.86738L72.3875 6.36117C72.6637 6.3999 72.8807 6.48704 73.0385 6.62259C73.1963 6.75814 73.3146 6.93242 73.3936 7.14542C73.4725 7.35843 73.4875 7.57647 73.4385 7.79955C73.3896 8.02263 73.2661 8.22092 73.0681 8.39442L68.7183 12.0833L70.0202 17.5731C70.0794 17.8248 70.0597 18.0526 69.9611 18.2563C69.8624 18.46 69.7243 18.6292 69.5468 18.764C69.3692 18.8995 69.1621 18.977 68.9254 18.9964C68.6887 19.0157 68.4618 18.9576 68.2448 18.8221L63.3328 15.9174Z" fill="#476CB6"/>
<path d="M89.9326 15.9174L85.0206 18.8221C84.8036 18.9576 84.5768 19.0157 84.34 18.9964C84.1033 18.977 83.8962 18.8995 83.7186 18.764C83.5411 18.6285 83.403 18.4588 83.3044 18.2551C83.2057 18.0514 83.186 17.8241 83.2452 17.5731L84.5472 12.0833L80.1974 8.39442C80.0001 8.22014 79.877 8.02146 79.8281 7.79839C79.7791 7.57531 79.7937 7.35766 79.8719 7.14542C79.9508 6.93242 80.0691 6.75814 80.2269 6.62259C80.3848 6.48704 80.6018 6.3999 80.8779 6.36117L86.6185 5.86738L88.8378 0.697115C88.9364 0.464743 89.0895 0.290464 89.297 0.174279C89.5046 0.058093 89.7164 0 89.9326 0C90.1496 0 90.3615 0.058093 90.5682 0.174279C90.775 0.290464 90.9281 0.464743 91.0275 0.697115L93.2468 5.86738L98.9873 6.36117C99.2635 6.3999 99.4805 6.48704 99.6383 6.62259C99.7961 6.75814 99.9145 6.93242 99.9934 7.14542C100.072 7.35843 100.087 7.57647 100.038 7.79955C99.9895 8.02263 99.866 8.22092 99.6679 8.39442L95.3181 12.0833L96.6201 17.5731C96.6793 17.8248 96.6595 18.0526 96.5609 18.2563C96.4623 18.46 96.3242 18.6292 96.1466 18.764C95.9691 18.8995 95.762 18.977 95.5252 18.9964C95.2885 19.0157 95.0617 18.9576 94.8447 18.8221L89.9326 15.9174Z" fill="#476CB6"/>
<path d="M116.533 15.9174L111.621 18.8221C111.404 18.9576 111.177 19.0157 110.94 18.9964C110.704 18.977 110.497 18.8995 110.319 18.764C110.141 18.6285 110.003 18.4588 109.905 18.2551C109.806 18.0514 109.786 17.8241 109.846 17.5731L111.148 12.0833L106.798 8.39442C106.6 8.22014 106.477 8.02146 106.428 7.79839C106.379 7.57531 106.394 7.35766 106.472 7.14542C106.551 6.93242 106.669 6.75814 106.827 6.62259C106.985 6.48704 107.202 6.3999 107.478 6.36117L113.219 5.86738L115.438 0.697115C115.537 0.464743 115.69 0.290464 115.897 0.174279C116.105 0.058093 116.317 0 116.533 0C116.75 0 116.962 0.058093 117.169 0.174279C117.375 0.290464 117.528 0.464743 117.628 0.697115L119.847 5.86738L125.588 6.36117C125.864 6.3999 126.081 6.48704 126.239 6.62259C126.396 6.75814 126.515 6.93242 126.594 7.14542C126.673 7.35843 126.688 7.57647 126.639 7.79955C126.59 8.02263 126.466 8.22092 126.268 8.39442L121.918 12.0833L123.22 17.5731C123.28 17.8248 123.26 18.0526 123.161 18.2563C123.063 18.46 122.925 18.6292 122.747 18.764C122.569 18.8995 122.362 18.977 122.126 18.9964C121.889 19.0157 121.662 18.9576 121.445 18.8221L116.533 15.9174Z" fill="#476CB6"/>
</svg>
