<svg width="90" height="14" viewBox="0 0 90 14" fill="none" xmlns="http://www.w3.org/2000/svg">
<path d="M7.15079 11.4166L3.68435 13.4664C3.53121 13.5621 3.37112 13.6031 3.20406 13.5894C3.037 13.5758 2.89083 13.5211 2.76553 13.4255C2.64024 13.3298 2.54279 13.2101 2.47318 13.0663C2.40358 12.9226 2.38965 12.7621 2.43142 12.585L3.35023 8.71086L0.280553 6.10758C0.141338 5.98459 0.0544684 5.84438 0.0199432 5.68696C-0.0145821 5.52953 -0.00428023 5.37593 0.0508487 5.22616C0.106535 5.07584 0.190063 4.95285 0.301435 4.85719C0.412807 4.76153 0.565943 4.70004 0.760843 4.67271L4.81199 4.32424L6.37815 0.675552C6.44776 0.511566 6.55579 0.388576 6.70224 0.306583C6.8487 0.22459 6.99821 0.183594 7.15079 0.183594C7.30393 0.183594 7.45344 0.22459 7.59934 0.306583C7.74524 0.388576 7.85327 0.511566 7.92343 0.675552L9.4896 4.32424L13.5407 4.67271C13.7356 4.70004 13.8888 4.76153 14.0001 4.85719C14.1115 4.95285 14.1951 5.07584 14.2507 5.22616C14.3064 5.37648 14.317 5.53035 14.2825 5.68778C14.248 5.8452 14.1608 5.98514 14.021 6.10758L10.9514 8.71086L11.8702 12.585C11.9119 12.7627 11.898 12.9234 11.8284 13.0671C11.7588 13.2109 11.6613 13.3303 11.5361 13.4255C11.4108 13.5211 11.2646 13.5758 11.0975 13.5894C10.9305 13.6031 10.7704 13.5621 10.6172 13.4664L7.15079 11.4166Z" fill="#476CB6"/>
<path d="M25.9225 11.4166L22.4561 13.4664C22.3029 13.5621 22.1428 13.6031 21.9758 13.5894C21.8087 13.5758 21.6626 13.5211 21.5373 13.4255C21.412 13.3298 21.3145 13.2101 21.2449 13.0663C21.1753 12.9226 21.1614 12.7621 21.2031 12.585L22.122 8.71086L19.0523 6.10758C18.9131 5.98459 18.8262 5.84438 18.7917 5.68696C18.7571 5.52953 18.7674 5.37593 18.8226 5.22616C18.8783 5.07584 18.9618 4.95285 19.0732 4.85719C19.1845 4.76153 19.3377 4.70004 19.5326 4.67271L23.5837 4.32424L25.1499 0.675552C25.2195 0.511566 25.3275 0.388576 25.474 0.306583C25.6204 0.22459 25.7699 0.183594 25.9225 0.183594C26.0757 0.183594 26.2252 0.22459 26.3711 0.306583C26.517 0.388576 26.625 0.511566 26.6952 0.675552L28.2613 4.32424L32.3125 4.67271C32.5074 4.70004 32.6605 4.76153 32.7719 4.85719C32.8833 4.95285 32.9668 5.07584 33.0225 5.22616C33.0781 5.37648 33.0887 5.53035 33.0542 5.68778C33.0197 5.8452 32.9325 5.98514 32.7928 6.10758L29.7231 8.71086L30.6419 12.585C30.6837 12.7627 30.6697 12.9234 30.6001 13.0671C30.5305 13.2109 30.4331 13.3303 30.3078 13.4255C30.1825 13.5211 30.0363 13.5758 29.8693 13.5894C29.7022 13.6031 29.5421 13.5621 29.389 13.4664L25.9225 11.4166Z" fill="#476CB6"/>
<path d="M44.6942 11.4166L41.2278 13.4664C41.0747 13.5621 40.9146 13.6031 40.7475 13.5894C40.5805 13.5758 40.4343 13.5211 40.309 13.4255C40.1837 13.3298 40.0862 13.2101 40.0166 13.0663C39.947 12.9226 39.9331 12.7621 39.9749 12.585L40.8937 8.71086L37.824 6.10758C37.6848 5.98459 37.5979 5.84438 37.5634 5.68696C37.5289 5.52953 37.5392 5.37593 37.5943 5.22616C37.65 5.07584 37.7335 4.95285 37.8449 4.85719C37.9563 4.76153 38.1094 4.70004 38.3043 4.67271L42.3554 4.32424L43.9216 0.675552C43.9912 0.511566 44.0992 0.388576 44.2457 0.306583C44.3922 0.22459 44.5417 0.183594 44.6942 0.183594C44.8474 0.183594 44.9969 0.22459 45.1428 0.306583C45.2887 0.388576 45.3967 0.511566 45.4669 0.675552L47.0331 4.32424L51.0842 4.67271C51.2791 4.70004 51.4322 4.76153 51.5436 4.85719C51.655 4.95285 51.7385 5.07584 51.7942 5.22616C51.8499 5.37648 51.8605 5.53035 51.8259 5.68778C51.7914 5.8452 51.7043 5.98514 51.5645 6.10758L48.4948 8.71086L49.4136 12.585C49.4554 12.7627 49.4415 12.9234 49.3719 13.0671C49.3023 13.2109 49.2048 13.3303 49.0795 13.4255C48.9542 13.5211 48.808 13.5758 48.641 13.5894C48.4739 13.6031 48.3138 13.5621 48.1607 13.4664L44.6942 11.4166Z" fill="#476CB6"/>
<path d="M63.466 11.4166L59.9995 13.4664C59.8464 13.5621 59.6863 13.6031 59.5192 13.5894C59.3522 13.5758 59.206 13.5211 59.0807 13.4255C58.9554 13.3298 58.858 13.2101 58.7884 13.0663C58.7188 12.9226 58.7048 12.7621 58.7466 12.585L59.6654 8.71086L56.5957 6.10758C56.4565 5.98459 56.3697 5.84438 56.3351 5.68696C56.3006 5.52953 56.3109 5.37593 56.366 5.22616C56.4217 5.07584 56.5052 4.95285 56.6166 4.85719C56.728 4.76153 56.8811 4.70004 57.076 4.67271L61.1272 4.32424L62.6933 0.675552C62.7629 0.511566 62.871 0.388576 63.0174 0.306583C63.1639 0.22459 63.3134 0.183594 63.466 0.183594C63.6191 0.183594 63.7686 0.22459 63.9145 0.306583C64.0604 0.388576 64.1685 0.511566 64.2386 0.675552L65.8048 4.32424L69.8559 4.67271C70.0508 4.70004 70.204 4.76153 70.3153 4.85719C70.4267 4.95285 70.5102 5.07584 70.5659 5.22616C70.6216 5.37648 70.6322 5.53035 70.5977 5.68778C70.5631 5.8452 70.476 5.98514 70.3362 6.10758L67.2665 8.71086L68.1854 12.585C68.2271 12.7627 68.2132 12.9234 68.1436 13.0671C68.074 13.2109 67.9765 13.3303 67.8512 13.4255C67.7259 13.5211 67.5798 13.5758 67.4127 13.5894C67.2457 13.6031 67.0856 13.5621 66.9324 13.4664L63.466 11.4166Z" fill="#476CB6"/>
<path d="M82.238 11.4166L78.7715 13.4664C78.6184 13.5621 78.4583 13.6031 78.2912 13.5894C78.1242 13.5758 77.978 13.5211 77.8527 13.4255C77.7274 13.3298 77.6299 13.2101 77.5603 13.0663C77.4907 12.9226 77.4768 12.7621 77.5186 12.585L78.4374 8.71086L75.3677 6.10758C75.2285 5.98459 75.1416 5.84438 75.1071 5.68696C75.0726 5.52953 75.0829 5.37593 75.138 5.22616C75.1937 5.07584 75.2772 4.95285 75.3886 4.85719C75.5 4.76153 75.6531 4.70004 75.848 4.67271L79.8991 4.32424L81.4653 0.675552C81.5349 0.511566 81.6429 0.388576 81.7894 0.306583C81.9359 0.22459 82.0854 0.183594 82.238 0.183594C82.3911 0.183594 82.5406 0.22459 82.6865 0.306583C82.8324 0.388576 82.9404 0.511566 83.0106 0.675552L84.5768 4.32424L88.6279 4.67271C88.8228 4.70004 88.9759 4.76153 89.0873 4.85719C89.1987 4.95285 89.2822 5.07584 89.3379 5.22616C89.3936 5.37648 89.4042 5.53035 89.3696 5.68778C89.3351 5.8452 89.248 5.98514 89.1082 6.10758L86.0385 8.71086L86.9573 12.585C86.9991 12.7627 86.9852 12.9234 86.9156 13.0671C86.846 13.2109 86.7485 13.3303 86.6232 13.4255C86.4979 13.5211 86.3517 13.5758 86.1847 13.5894C86.0176 13.6031 85.8575 13.5621 85.7044 13.4664L82.238 11.4166Z" fill="#476CB6"/>
</svg>
