<svg width="167" height="31" viewBox="0 0 167 31" fill="none" xmlns="http://www.w3.org/2000/svg">
<path d="M7.15079 19.4166L3.68435 21.4664C3.53121 21.5621 3.37112 21.6031 3.20406 21.5894C3.037 21.5758 2.89083 21.5211 2.76553 21.4255C2.64024 21.3298 2.54279 21.2101 2.47318 21.0663C2.40358 20.9226 2.38965 20.7621 2.43142 20.585L3.35023 16.7109L0.280553 14.1076C0.141338 13.9846 0.0544684 13.8444 0.0199432 13.687C-0.0145821 13.5295 -0.00428023 13.3759 0.0508487 13.2262C0.106535 13.0758 0.190063 12.9528 0.301435 12.8572C0.412807 12.7615 0.565943 12.7 0.760843 12.6727L4.81199 12.3242L6.37815 8.67555C6.44776 8.51157 6.55579 8.38858 6.70224 8.30658C6.8487 8.22459 6.99821 8.18359 7.15079 8.18359C7.30393 8.18359 7.45344 8.22459 7.59934 8.30658C7.74524 8.38858 7.85327 8.51157 7.92343 8.67555L9.4896 12.3242L13.5407 12.6727C13.7356 12.7 13.8888 12.7615 14.0002 12.8572C14.1115 12.9528 14.195 13.0758 14.2507 13.2262C14.3064 13.3765 14.317 13.5304 14.2825 13.6878C14.248 13.8452 14.1608 13.9851 14.021 14.1076L10.9514 16.7109L11.8702 20.585C11.9119 20.7627 11.898 20.9234 11.8284 21.0671C11.7588 21.2109 11.6613 21.3303 11.5361 21.4255C11.4108 21.5211 11.2646 21.5758 11.0975 21.5894C10.9305 21.6031 10.7704 21.5621 10.6172 21.4664L7.15079 19.4166Z" fill="#476CB6"/>
<path d="M25.9225 19.4166L22.4561 21.4664C22.3029 21.5621 22.1428 21.6031 21.9758 21.5894C21.8087 21.5758 21.6626 21.5211 21.5373 21.4255C21.412 21.3298 21.3145 21.2101 21.2449 21.0663C21.1753 20.9226 21.1614 20.7621 21.2031 20.585L22.122 16.7109L19.0523 14.1076C18.9131 13.9846 18.8262 13.8444 18.7917 13.687C18.7571 13.5295 18.7674 13.3759 18.8226 13.2262C18.8783 13.0758 18.9618 12.9528 19.0732 12.8572C19.1845 12.7615 19.3377 12.7 19.5326 12.6727L23.5837 12.3242L25.1499 8.67555C25.2195 8.51157 25.3275 8.38858 25.474 8.30658C25.6204 8.22459 25.7699 8.18359 25.9225 8.18359C26.0757 8.18359 26.2252 8.22459 26.3711 8.30658C26.517 8.38858 26.625 8.51157 26.6952 8.67555L28.2613 12.3242L32.3125 12.6727C32.5074 12.7 32.6605 12.7615 32.7719 12.8572C32.8833 12.9528 32.9668 13.0758 33.0225 13.2262C33.0782 13.3765 33.0887 13.5304 33.0542 13.6878C33.0197 13.8452 32.9325 13.9851 32.7928 14.1076L29.7231 16.7109L30.6419 20.585C30.6837 20.7627 30.6697 20.9234 30.6001 21.0671C30.5305 21.2109 30.4331 21.3303 30.3078 21.4255C30.1825 21.5211 30.0363 21.5758 29.8693 21.5894C29.7022 21.6031 29.5421 21.5621 29.389 21.4664L25.9225 19.4166Z" fill="#476CB6"/>
<path d="M44.6942 19.4166L41.2278 21.4664C41.0747 21.5621 40.9146 21.6031 40.7475 21.5894C40.5805 21.5758 40.4343 21.5211 40.309 21.4255C40.1837 21.3298 40.0862 21.2101 40.0166 21.0663C39.947 20.9226 39.9331 20.7621 39.9749 20.585L40.8937 16.7109L37.824 14.1076C37.6848 13.9846 37.5979 13.8444 37.5634 13.687C37.5289 13.5295 37.5392 13.3759 37.5943 13.2262C37.65 13.0758 37.7335 12.9528 37.8449 12.8572C37.9563 12.7615 38.1094 12.7 38.3043 12.6727L42.3554 12.3242L43.9216 8.67555C43.9912 8.51157 44.0992 8.38858 44.2457 8.30658C44.3922 8.22459 44.5417 8.18359 44.6942 8.18359C44.8474 8.18359 44.9969 8.22459 45.1428 8.30658C45.2887 8.38858 45.3967 8.51157 45.4669 8.67555L47.0331 12.3242L51.0842 12.6727C51.2791 12.7 51.4322 12.7615 51.5436 12.8572C51.655 12.9528 51.7385 13.0758 51.7942 13.2262C51.8499 13.3765 51.8605 13.5304 51.8259 13.6878C51.7914 13.8452 51.7043 13.9851 51.5645 14.1076L48.4948 16.7109L49.4136 20.585C49.4554 20.7627 49.4415 20.9234 49.3719 21.0671C49.3023 21.2109 49.2048 21.3303 49.0795 21.4255C48.9542 21.5211 48.808 21.5758 48.641 21.5894C48.4739 21.6031 48.3138 21.5621 48.1607 21.4664L44.6942 19.4166Z" fill="#476CB6"/>
<path d="M63.466 19.4166L59.9995 21.4664C59.8464 21.5621 59.6863 21.6031 59.5192 21.5894C59.3522 21.5758 59.206 21.5211 59.0807 21.4255C58.9554 21.3298 58.858 21.2101 58.7884 21.0663C58.7188 20.9226 58.7048 20.7621 58.7466 20.585L59.6654 16.7109L56.5957 14.1076C56.4565 13.9846 56.3697 13.8444 56.3351 13.687C56.3006 13.5295 56.3109 13.3759 56.366 13.2262C56.4217 13.0758 56.5052 12.9528 56.6166 12.8572C56.728 12.7615 56.8811 12.7 57.076 12.6727L61.1272 12.3242L62.6933 8.67555C62.7629 8.51157 62.871 8.38858 63.0174 8.30658C63.1639 8.22459 63.3134 8.18359 63.466 8.18359C63.6191 8.18359 63.7686 8.22459 63.9145 8.30658C64.0604 8.38858 64.1685 8.51157 64.2386 8.67555L65.8048 12.3242L69.8559 12.6727C70.0508 12.7 70.204 12.7615 70.3153 12.8572C70.4267 12.9528 70.5102 13.0758 70.5659 13.2262C70.6216 13.3765 70.6322 13.5304 70.5977 13.6878C70.5631 13.8452 70.476 13.9851 70.3362 14.1076L67.2665 16.7109L68.1854 20.585C68.2271 20.7627 68.2132 20.9234 68.1436 21.0671C68.074 21.2109 67.9765 21.3303 67.8512 21.4255C67.7259 21.5211 67.5798 21.5758 67.4127 21.5894C67.2457 21.6031 67.0856 21.5621 66.9324 21.4664L63.466 19.4166Z" fill="#476CB6"/>
<path d="M82.238 19.4166L78.7715 21.4664C78.6184 21.5621 78.4583 21.6031 78.2912 21.5894C78.1242 21.5758 77.978 21.5211 77.8527 21.4255C77.7274 21.3298 77.6299 21.2101 77.5603 21.0663C77.4907 20.9226 77.4768 20.7621 77.5186 20.585L78.4374 16.7109L75.3677 14.1076C75.2285 13.9846 75.1416 13.8444 75.1071 13.687C75.0726 13.5295 75.0829 13.3759 75.138 13.2262C75.1937 13.0758 75.2772 12.9528 75.3886 12.8572C75.5 12.7615 75.6531 12.7 75.848 12.6727L79.8991 12.3242L81.4653 8.67555C81.5349 8.51157 81.6429 8.38858 81.7894 8.30658C81.9359 8.22459 82.0854 8.18359 82.238 8.18359C82.3911 8.18359 82.5406 8.22459 82.6865 8.30658C82.8324 8.38858 82.9404 8.51157 83.0106 8.67555L84.5768 12.3242L88.6279 12.6727C88.8228 12.7 88.9759 12.7615 89.0873 12.8572C89.1987 12.9528 89.2822 13.0758 89.3379 13.2262C89.3936 13.3765 89.4042 13.5304 89.3696 13.6878C89.3351 13.8452 89.248 13.9851 89.1082 14.1076L86.0385 16.7109L86.9573 20.585C86.9991 20.7627 86.9852 20.9234 86.9156 21.0671C86.846 21.2109 86.7485 21.3303 86.6232 21.4255C86.4979 21.5211 86.3517 21.5758 86.1847 21.5894C86.0176 21.6031 85.8575 21.5621 85.7044 21.4664L82.238 19.4166Z" fill="#476CB6"/>
<path d="M117.668 10.1365H113.221L112.994 13.7303C113.411 13.6393 113.9 13.5938 114.461 13.5938C115.712 13.5938 116.705 14.0336 117.441 14.9131C118.184 15.785 118.555 16.9754 118.555 18.4842C118.555 20.2887 118.093 21.6989 117.168 22.7149C116.25 23.7233 114.973 24.2275 113.335 24.2275C111.872 24.2275 110.693 23.9507 109.798 23.3972V20.5085C110.185 20.7891 110.681 21.0393 111.288 21.2591C111.894 21.4714 112.463 21.5776 112.994 21.5776C114.624 21.5776 115.439 20.6298 115.439 18.7344C115.439 16.9678 114.647 16.0845 113.062 16.0845C112.44 16.0845 111.773 16.2058 111.06 16.4484L110.06 15.7092L110.571 7.37289H117.668V10.1365Z" fill="#476CB6"/>
<path d="M132.816 10.206C132.835 10.206 132.973 10.1876 133.231 10.1507C133.495 10.1138 133.754 10.08 134.006 10.0493C134.713 9.96322 135.413 9.92019 136.108 9.92019C136.803 9.92019 137.359 9.98781 137.777 10.1231C138.195 10.2583 138.524 10.4335 138.764 10.6487C139.01 10.8577 139.203 11.1282 139.345 11.4601C139.486 11.786 139.578 12.1087 139.621 12.4284C139.664 12.748 139.686 13.1169 139.686 13.5349V22H138.293V13.5349C138.293 12.2931 137.992 11.5493 137.39 11.3034C137.101 11.1804 136.757 11.1189 136.357 11.1189C135.957 11.1189 135.509 11.1343 135.011 11.1651V18.7449C135.011 19.9928 134.888 20.8566 134.642 21.3361C134.402 21.8156 133.926 22.0553 133.213 22.0553C132.985 22.0553 132.699 22.0154 132.355 21.9355V20.7182C132.65 20.7736 132.813 20.8012 132.844 20.8012C133.12 20.8012 133.317 20.706 133.434 20.5154C133.551 20.3187 133.609 20.0267 133.609 19.6394V11.2942C133.455 11.3126 133.191 11.3464 132.816 11.3956V10.206ZM143.531 22H142.139V10.1046H143.531V22ZM146.878 9.92019C148.176 9.92019 149.058 10.1753 149.525 10.6856C149.992 11.1896 150.226 12.1333 150.226 13.5165V22H148.824V13.5165C148.824 13.0062 148.796 12.6036 148.741 12.3085C148.686 12.0134 148.575 11.7737 148.409 11.5892C148.249 11.3987 148.043 11.2726 147.791 11.2112C147.539 11.1497 147.201 11.1189 146.777 11.1189C146.359 11.1189 145.781 11.1558 145.043 11.2296V10.0308C145.757 9.95707 146.368 9.92019 146.878 9.92019ZM154.016 16.2367C153.346 17.1896 153.001 17.6783 152.983 17.7029H152.623V10.1046H154.016V16.2367ZM158.562 22H156.81L155.823 10.1046H157.169L157.713 16.6517C158.34 16.4242 158.802 16.0492 159.097 15.5267C159.398 14.998 159.595 14.205 159.687 13.1476L159.954 10.1046H161.273L161.005 13.1384C160.907 14.2142 160.723 15.0656 160.452 15.6927C159.991 16.7869 159.112 17.4908 157.815 17.8043L158.064 20.8105H158.562C159.447 20.8105 160.231 20.5738 160.913 20.1004C161.596 19.6209 162.13 18.9724 162.518 18.1547C162.911 17.331 163.157 16.3781 163.255 15.2962L163.735 10.1046H165.063L164.583 15.2962C164.399 17.374 163.79 19.0123 162.757 20.2111C162.444 20.5799 162.093 20.8935 161.706 21.1516C161.319 21.4037 160.855 21.6096 160.314 21.7695C159.779 21.9232 159.195 22 158.562 22Z" fill="#071E4F"/>
</svg>
